<svg xmlns="http://www.w3.org/2000/svg" width="100%" height="auto" viewBox="0 0 184 184" version="1.1" viewBox="0 0 184 184" width="100%" height="auto">
	<path fill-opacity="0.412" d="M 0 92 L 0 184 41.014 184 C 63.571 184, 82.809 183.605, 83.764 183.122 C 93.223 178.340, 96.086 178.066, 100.604 181.511 L 103.896 184.023 144.198 183.761 L 184.500 183.500 184.755 91.750 L 185.010 0 92.505 0 L 0 0 0 92 M 0.479 92.500 C 0.479 143.100, 0.601 163.947, 0.750 138.826 C 0.898 113.705, 0.898 72.305, 0.750 46.826 C 0.601 21.347, 0.479 41.900, 0.479 92.500 M 108.500 32.951 L 96.500 33.500 96.694 36.960 C 97.029 42.926, 97.843 44.570, 101.196 46.057 C 105.129 47.801, 109.921 54.463, 109.967 58.250 C 109.987 59.954, 110.545 61, 111.432 61 C 113.137 61, 117 55.863, 117 53.596 C 117 51.059, 120.899 51.684, 122.145 54.419 C 124.180 58.886, 133.356 64.441, 141.272 65.998 C 145.861 66.900, 146.618 65.945, 144.567 61.834 C 143.705 60.106, 143 58.102, 143 57.380 C 143 56.658, 142.242 54.478, 141.315 52.534 C 139.794 49.345, 138.305 48.415, 135.564 48.943 C 131.179 49.788, 125 42.835, 125 37.055 C 125 35.128, 124.315 33.704, 123.066 33.035 C 122.002 32.466, 120.989 32.091, 120.816 32.201 C 120.642 32.312, 115.100 32.649, 108.500 32.951 M 128.686 32.648 C 127.536 33.797, 127.914 36.751, 129.685 40.466 C 131.472 44.213, 131.588 44.276, 136.945 44.412 C 139.704 44.483, 140.856 45.186, 142.724 47.941 C 144.008 49.833, 145.338 52.533, 145.681 53.941 C 146.025 55.348, 147.414 58.862, 148.770 61.750 C 150.886 66.258, 151.632 67, 154.052 67 C 155.602 67, 157.989 66.574, 159.357 66.054 L 161.845 65.109 159.565 58.804 C 158.312 55.337, 157.023 51.825, 156.701 51 C 156.380 50.175, 155.974 48.600, 155.800 47.500 C 155.580 46.115, 154.563 45.396, 152.491 45.162 C 148.504 44.710, 147.232 43.507, 145.843 38.869 C 145.201 36.728, 144.187 34.577, 143.588 34.089 C 142.199 32.956, 129.596 31.737, 128.686 32.648 M 68.050 33.927 C 66.923 34.656, 66.589 37.499, 66.550 46.683 C 66.504 57.499, 66.697 58.777, 68.829 61.765 C 70.110 63.561, 72.545 65.748, 74.241 66.625 C 77.724 68.426, 87.547 69.581, 91.322 68.634 L 93.822 68.007 91.976 64.186 C 90.960 62.085, 89.806 59.046, 89.411 57.433 C 88.495 53.695, 87.247 52.896, 83.421 53.596 C 81.037 54.031, 79.635 53.564, 77.212 51.525 C 74.269 49.049, 74.065 48.431, 73.791 41.196 C 73.533 34.366, 73.275 33.471, 71.500 33.244 C 70.400 33.104, 68.848 33.411, 68.050 33.927 M 78.484 34.026 C 78.135 34.590, 77.602 37.458, 77.298 40.399 C 76.825 44.982, 77.056 46.056, 78.911 47.911 C 80.648 49.648, 81.769 49.946, 84.578 49.419 C 88.383 48.706, 91.961 50.856, 92.043 53.905 C 92.108 56.329, 97.319 66.168, 99.150 67.323 C 100.277 68.034, 101.703 67.951, 103.882 67.049 C 106.451 65.985, 106.993 65.206, 106.959 62.629 C 106.890 57.421, 102.976 50.723, 98.880 48.803 C 94.941 46.957, 92 41.476, 92 35.980 L 92 33 85.559 33 C 82.016 33, 78.833 33.462, 78.484 34.026 M 148.383 34.190 C 147.364 35.839, 150.535 40.500, 152.697 40.531 C 155.190 40.566, 159 43.672, 159 45.669 C 159 46.416, 159.406 47.809, 159.903 48.764 C 160.399 49.719, 161.355 52.364, 162.027 54.643 C 163.648 60.138, 164.521 61.414, 166.023 60.486 C 167.609 59.506, 166.722 47.735, 164.501 40.290 C 163.107 35.619, 162.613 35.029, 159.723 34.578 C 153.165 33.557, 148.865 33.409, 148.383 34.190 M 57.875 34.459 C 57.622 34.711, 54.060 35.428, 49.958 36.052 C 45.856 36.676, 42.073 37.595, 41.550 38.094 C 41.028 38.592, 39.559 39, 38.286 39 C 37.014 39, 35.191 39.428, 34.236 39.952 C 33.281 40.475, 30.700 41.682, 28.500 42.633 C 22.499 45.229, 16.918 49.952, 15.313 53.794 C 13.630 57.821, 14.196 58.947, 16.663 56.480 C 21.102 52.041, 35.893 48.334, 50.226 48.067 C 55.852 47.963, 60.526 47.792, 60.612 47.689 C 60.698 47.585, 60.954 44.462, 61.181 40.750 C 61.533 35.007, 61.351 34, 59.964 34 C 59.067 34, 58.127 34.206, 57.875 34.459 M 14.724 102.212 C 9.649 117.010, 8.002 126.391, 8.002 140.500 C 8.002 154.364, 9.885 165.906, 12.614 168.773 C 15.110 171.396, 21.192 174.370, 28.154 176.373 C 37.563 179.081, 61.301 178.633, 74.758 175.495 C 80.666 174.117, 86.400 172.578, 87.500 172.075 C 88.600 171.572, 92.763 169.999, 96.750 168.580 C 114.791 162.160, 118.079 160.721, 119.108 158.799 C 122.127 153.156, 119.258 139.258, 114.112 134.601 C 112.139 132.816, 111.728 132.812, 102.284 134.483 C 96.903 135.436, 92.073 136.617, 91.550 137.108 C 91.028 137.598, 89.896 138, 89.037 138 C 88.177 138, 85.166 139.554, 82.346 141.453 C 79.527 143.352, 74.732 145.780, 71.692 146.848 C 64.559 149.355, 58.389 153.702, 54 159.313 C 44.658 171.255, 31.218 172.239, 23.872 161.518 C 22.589 159.645, 20.701 157.894, 19.678 157.626 C 17.977 157.181, 18.142 156.511, 21.590 149.820 C 26.812 139.688, 30.758 135.061, 38.954 129.461 C 45.113 125.253, 46 124.260, 45.996 121.573 C 45.992 118.037, 42.881 112.378, 40.866 112.240 C 35.827 111.896, 25.848 106.823, 20.483 101.877 L 16.194 97.924 14.724 102.212 M 163.044 108.036 C 157.257 112.982, 146.636 117.466, 133.709 120.421 C 130.482 121.158, 131.007 123, 134.445 123 C 135.724 123, 138.060 123.672, 139.636 124.494 C 143.567 126.544, 144.546 126.402, 147.353 123.375 C 150.541 119.937, 152.666 121.065, 150.358 124.971 C 148.697 127.783, 148.720 127.854, 153.383 134.389 C 155.968 138.010, 159.076 141.484, 160.291 142.107 C 163.953 143.985, 169 149.271, 169 151.228 C 169 153.669, 166.347 154.580, 164.213 152.871 C 159.540 149.130, 157.275 148.554, 145.739 148.175 C 133.174 147.762, 128.781 148.320, 129.165 150.278 C 129.296 150.950, 129.085 153.750, 128.695 156.500 C 127.811 162.732, 122.409 169.442, 115.498 172.894 L 110.739 175.271 114.119 176.715 C 122.839 180.440, 145.910 180.281, 161.137 176.391 C 170.184 174.080, 178.862 169.493, 180.037 166.402 C 181.344 162.965, 181.251 132.482, 179.919 127.500 C 179.331 125.300, 177.707 120.575, 176.312 117 C 171.223 103.967, 169.313 102.676, 163.044 108.036 M 49.590 115.743 C 48.761 116.573, 48.882 121.294, 49.765 122.522 C 50.778 123.930, 65 123.821, 65 122.405 C 65 120.851, 61.633 118, 59.797 118 C 58.947 118, 56.436 117.359, 54.216 116.576 C 51.997 115.793, 49.915 115.418, 49.590 115.743 M 70.032 122.143 C 70.078 124.133, 72.063 126.254, 75.857 128.368 C 79.141 130.199, 79.247 130.197, 81.143 128.301 C 83.986 125.458, 82.616 123.267, 77.679 122.765 C 75.381 122.531, 72.713 121.991, 71.750 121.563 C 70.558 121.034, 70.010 121.218, 70.032 122.143 M 114 124 C 114 124.550, 114.648 125, 115.441 125 C 116.234 125, 117.160 124.550, 117.500 124 C 117.840 123.450, 117.191 123, 116.059 123 C 114.927 123, 114 123.450, 114 124 M 91.865 128.424 C 90.331 131.809, 90.341 132, 92.063 132 C 93.063 132, 94.160 131.550, 94.500 131 C 94.840 130.450, 96.779 129.994, 98.809 129.986 C 103.975 129.967, 107 129.006, 107 127.383 C 107 126.444, 105.758 126, 103.125 126 C 100.994 126, 97.953 125.741, 96.368 125.424 C 93.808 124.912, 93.305 125.246, 91.865 128.424" stroke="none" fill="black" fill-rule="evenodd"/>
	<path fill-opacity="0.193" d="M 0 92 L 0 184 38.071 184 C 70.579 184, 76.362 183.781, 77.643 182.500 C 78.468 181.675, 80.386 181, 81.905 181 C 83.424 181, 84.958 180.709, 85.314 180.353 C 85.670 179.997, 88.272 178.923, 91.098 177.967 C 95.874 176.350, 96.437 176.343, 99.111 177.864 C 100.693 178.764, 101.990 179.838, 101.994 180.250 C 101.997 180.662, 102.653 181, 103.450 181 C 104.248 181, 105.281 181.680, 105.747 182.512 C 106.483 183.828, 111.641 183.990, 145.546 183.762 L 184.500 183.500 184.755 91.750 L 185.010 0 92.505 0 L 0 0 0 92 M 0.479 92.500 C 0.479 143.100, 0.601 163.947, 0.750 138.826 C 0.898 113.705, 0.898 72.305, 0.750 46.826 C 0.601 21.347, 0.479 41.900, 0.479 92.500 M 113.500 30.684 C 111.850 30.844, 100.637 31.093, 88.582 31.238 C 71.744 31.439, 66.565 31.799, 66.235 32.792 C 65.903 33.792, 65.485 33.817, 64.386 32.905 C 62.293 31.168, 52.042 32.494, 40.226 36.029 C 24.884 40.618, 16.260 45.979, 13.377 52.718 C 10.444 59.573, 12.873 61.746, 18.844 57.608 C 24.582 53.632, 32.121 51.950, 47 51.327 C 54.425 51.016, 61.036 50.333, 61.691 49.808 C 62.555 49.115, 63.078 49.903, 63.598 52.677 C 65.040 60.379, 67.659 64.603, 73.018 67.870 C 75.897 69.625, 78.088 69.993, 85.667 69.996 C 91.658 69.999, 94.965 69.604, 95.214 68.857 C 95.499 68.002, 96.131 68, 97.716 68.848 C 100.606 70.395, 105.568 69.238, 108.269 66.388 C 109.496 65.094, 110.910 64.027, 111.411 64.017 C 112.973 63.988, 118 57.733, 118 55.820 C 118 53.313, 119.415 53.539, 120.882 56.279 C 122.449 59.207, 130.517 64.714, 136.133 66.689 C 141.729 68.657, 154.476 69.287, 159 67.819 C 168.225 64.827, 170.520 59.378, 167.687 47.195 C 166.830 43.513, 165.845 39.063, 165.498 37.307 C 164.920 34.387, 164.409 34.019, 159.529 33.006 C 156.593 32.397, 152.209 32.001, 149.787 32.126 C 147.364 32.251, 144.869 32.037, 144.243 31.650 C 143.072 30.926, 118.853 30.165, 113.500 30.684 M 14.621 97.386 C 13.150 100.486, 9.549 113.966, 6.964 126.048 C 4.978 135.335, 6.839 162.246, 9.850 167.765 C 11.583 170.940, 17.445 174.406, 26.182 177.422 C 33.056 179.795, 34.997 180.001, 50.575 180.008 C 66.507 180.016, 77.614 178.645, 83.033 176.002 C 83.876 175.591, 86.008 174.937, 87.771 174.550 C 89.534 174.163, 91.234 173.431, 91.548 172.923 C 91.861 172.415, 93.441 172, 95.059 172 C 96.677 172, 98 171.550, 98 171 C 98 170.450, 98.719 170, 99.599 170 C 100.478 170, 102.616 169.378, 104.349 168.617 C 106.082 167.857, 109.075 166.664, 111 165.967 C 120.584 162.497, 123.057 159.925, 123.186 153.291 C 123.296 147.597, 116.046 132.999, 112.416 131.606 C 111.637 131.307, 111 130.466, 111 129.738 C 111 126.266, 136.756 124.315, 141.229 127.448 C 142.448 128.301, 144.093 129, 144.884 129 C 146.616 129, 152.201 135.100, 154.676 139.697 C 155.658 141.520, 157.370 143.285, 158.481 143.618 C 160.784 144.310, 166 148.924, 166 150.269 C 166 150.761, 164.432 150.194, 162.515 149.009 C 159.435 147.106, 157.428 146.834, 145.265 146.678 C 128.603 146.463, 127 147.051, 127 153.382 C 127 158.781, 125.158 162.526, 120.300 167.001 C 115.749 171.194, 112.689 173, 110.136 173 C 107.236 173, 105.624 175.443, 107.497 176.998 C 110.487 179.479, 124.218 181.931, 135.320 181.966 C 149.726 182.011, 160.782 179.743, 171.182 174.607 C 183.026 168.759, 183.814 167.103, 183.919 147.809 C 183.964 139.729, 183.609 132.876, 183.131 132.581 C 182.654 132.286, 181.982 130.287, 181.638 128.138 C 180.727 122.443, 174.406 107.911, 171.136 103.994 L 168.317 100.617 164.620 104.313 C 158.327 110.606, 146.480 115.659, 132.500 118.012 C 116.109 120.771, 110.613 122.009, 109.944 123.091 C 109.429 123.924, 108.995 123.863, 108.367 122.870 C 107.753 121.900, 105.154 121.492, 99.465 121.471 L 91.430 121.443 88.715 126.689 C 87.222 129.574, 86 133.074, 86 134.467 C 86 135.955, 85.430 137, 84.619 137 C 83.859 137, 81.946 138.293, 80.369 139.873 C 78.791 141.453, 75.700 143.315, 73.500 144.010 C 65.512 146.533, 59.960 150.126, 53.297 157.085 C 45.398 165.334, 42.647 167, 36.918 167 C 29.670 167, 21.975 160.462, 22.022 154.346 C 22.079 146.918, 30.530 136.038, 40.627 130.392 C 46.535 127.088, 47.992 126.722, 57.599 126.127 C 67.321 125.524, 68.074 125.608, 67.648 127.238 C 67.286 128.622, 67.810 129, 70.094 129 C 71.692 129, 73 129.400, 73 129.889 C 73 131.427, 79.494 132.072, 82.927 130.876 C 86.046 129.788, 86.181 129.540, 85.511 126.114 C 85.123 124.126, 84.752 121.786, 84.688 120.914 C 84.593 119.616, 83.024 119.292, 76.056 119.129 C 69.773 118.983, 67.326 118.546, 66.721 117.465 C 66.270 116.659, 64.834 116, 63.531 116 C 62.228 116, 58.425 115.299, 55.079 114.442 C 51.734 113.585, 48.595 113.132, 48.103 113.436 C 47.612 113.740, 46.994 113.429, 46.730 112.744 C 46.467 112.060, 44.057 110.900, 41.376 110.166 C 30.578 107.213, 25.047 104.243, 20.336 98.869 L 16.171 94.119 14.621 97.386 M 123.441 134.904 C 123.949 135.727, 134.940 135.264, 135.917 134.378 C 136.146 134.170, 133.307 134, 129.608 134 C 125.855 134, 123.129 134.400, 123.441 134.904 M 45.500 137 C 45.160 137.550, 45.782 138, 46.882 138 C 47.982 138, 49.160 137.550, 49.500 137 C 49.840 136.450, 49.218 136, 48.118 136 C 47.018 136, 45.840 136.450, 45.500 137 M 62.250 136.731 C 61.563 136.970, 61 137.579, 61 138.083 C 61 139.264, 64.708 139.282, 65.435 138.105 C 66.101 137.028, 63.999 136.121, 62.250 136.731 M 126 138.091 C 126 139.305, 127.809 139.596, 135.750 139.657 C 144.625 139.725, 145.186 139.622, 142 138.509 C 139.805 137.742, 136.549 137.538, 133.268 137.962 C 130.116 138.368, 127.632 138.232, 127.018 137.618 C 126.327 136.927, 126 137.079, 126 138.091 M 37 142.500 C 37 143.325, 37.177 144, 37.393 144 C 37.609 144, 38.045 143.325, 38.362 142.500 C 38.678 141.675, 38.501 141, 37.969 141 C 37.436 141, 37 141.675, 37 142.500 M 56.813 141.683 C 57.534 141.972, 58.397 141.936, 58.729 141.604 C 59.061 141.272, 58.471 141.036, 57.417 141.079 C 56.252 141.127, 56.015 141.364, 56.813 141.683 M 33.500 144 C 33.160 144.550, 33.584 145, 34.441 145 C 35.298 145, 36 144.550, 36 144 C 36 143.450, 35.577 143, 35.059 143 C 34.541 143, 33.840 143.450, 33.500 144 M 39.507 144.989 C 39.157 145.555, 39.558 145.723, 40.448 145.382 C 42.180 144.717, 42.497 144, 41.059 144 C 40.541 144, 39.843 144.445, 39.507 144.989 M 37.158 148 C 37.158 149.375, 37.385 149.938, 37.662 149.250 C 37.940 148.563, 37.940 147.438, 37.662 146.750 C 37.385 146.063, 37.158 146.625, 37.158 148 M 46.695 150.057 C 46.256 151.738, 46.415 151.900, 47.568 150.944 C 48.343 150.300, 48.731 149.374, 48.430 148.887 C 47.614 147.567, 47.289 147.786, 46.695 150.057 M 33.112 154.644 C 32.250 155.617, 32.099 156.456, 32.712 156.856 C 33.255 157.210, 33.933 158.175, 34.218 159 C 34.504 159.825, 34.751 158.813, 34.768 156.750 C 34.786 154.688, 34.732 153.017, 34.650 153.038 C 34.568 153.059, 33.875 153.781, 33.112 154.644" stroke="none" fill="black" fill-rule="evenodd"/>
	<path fill-opacity="0.570" d="M 0 92 L 0 184 15.573 184 C 29.483 184, 31.112 183.824, 30.823 182.357 C 30.456 180.491, 29.362 179.828, 22.927 177.573 C 17.290 175.597, 10.758 171.443, 9.092 168.776 C 5.849 163.583, 3.951 137.313, 5.965 125.500 C 7.736 115.113, 12.720 97.508, 14.909 93.909 L 16.826 90.757 21.663 95.168 C 29.190 102.031, 33.850 104.575, 46.639 108.800 C 68.598 116.055, 77.789 117.485, 102.500 117.493 C 115.277 117.498, 124.847 117.018, 129 116.166 C 146.491 112.578, 149.717 111.710, 154.768 109.237 C 157.761 107.772, 161.867 104.634, 163.892 102.264 C 167.561 97.973, 167.584 97.963, 169.652 99.891 C 172.778 102.803, 175.495 107.634, 178.993 116.500 C 180.729 120.900, 182.566 124.928, 183.075 125.450 C 183.584 125.973, 184 135.607, 184 146.861 L 184 167.322 181.004 169.997 C 179.356 171.468, 175.531 173.885, 172.504 175.367 C 167.649 177.744, 167 178.416, 167 181.070 L 167 184.078 175.750 183.789 L 184.500 183.500 184.755 91.750 L 185.010 0 92.505 0 L 0 0 0 92 M 0.479 92.500 C 0.479 143.100, 0.601 163.947, 0.750 138.826 C 0.898 113.705, 0.898 72.305, 0.750 46.826 C 0.601 21.347, 0.479 41.900, 0.479 92.500 M 61.809 8.536 C 56.132 11.492, 53.258 15.109, 48.649 25.099 C 45.031 32.942, 43.874 33.942, 36.500 35.609 C 31.929 36.642, 21.606 41.876, 17.560 45.212 C 13.624 48.455, 11 53.613, 11 58.103 C 11 62.360, 15.172 63.167, 18.870 59.625 C 21.753 56.862, 24 56.216, 24 58.150 C 24 58.783, 22.835 61.683, 21.410 64.594 C 19.916 67.647, 18.589 72.446, 18.272 75.936 C 17.784 81.316, 18.018 82.428, 20.385 86.005 C 27.417 96.632, 34.293 100.478, 59.500 107.883 C 85.352 115.477, 133.946 114.080, 152.500 105.210 C 162.799 100.287, 168.709 88.428, 167.661 74.790 C 167.228 69.155, 167.463 66.135, 168.534 63.572 C 170.484 58.905, 170.347 53.261, 168.034 43.030 C 165.956 33.841, 164.905 32.498, 159.020 31.503 C 156.265 31.038, 154.399 29.836, 152.217 27.121 C 148.712 22.758, 143.920 21, 135.538 21 C 127.995 21, 120.036 23.395, 115.439 27.049 C 113.396 28.672, 111.517 30, 111.264 30 C 111.010 30, 109.541 28.650, 108 27 C 105.392 24.208, 104.654 23.985, 97.349 23.789 C 84.315 23.438, 83.085 23.622, 76.787 26.870 C 69.854 30.446, 68 30.734, 68 28.234 C 68 25.881, 76.259 20.621, 82.288 19.133 C 85.221 18.410, 89.618 18.213, 93.637 18.624 C 98.439 19.116, 100.407 18.959, 100.977 18.038 C 103.199 14.442, 97.666 9.043, 89.807 7.138 C 87.226 6.512, 80.926 6.021, 75.807 6.047 C 67.941 6.086, 65.774 6.471, 61.809 8.536 M 108.250 7.247 C 104.691 8.388, 104.334 9.718, 106.142 15.101 C 108.494 22.106, 111.392 23.421, 117.193 20.116 C 121.473 17.678, 134.349 14.620, 137.260 15.350 C 140.746 16.225, 142.464 14.736, 141.039 12.074 C 138.500 7.328, 134.373 6, 122.500 6.106 C 116.450 6.160, 110.037 6.673, 108.250 7.247 M 84.430 78.977 C 81.689 80.070, 79 84.297, 79 87.513 C 79 90.967, 82.921 94.426, 88.758 96.122 C 95.672 98.131, 142.710 98.076, 149 96.052 C 155.465 93.971, 157.902 92.170, 159.534 88.263 C 161.174 84.340, 160.327 81.781, 156.760 79.871 C 154.156 78.478, 87.741 77.657, 84.430 78.977 M 85.384 84.442 C 84.245 87.409, 85.589 89.522, 89.514 90.934 C 92.617 92.050, 99.147 92.343, 119 92.254 C 133.025 92.192, 145.850 91.698, 147.500 91.156 C 149.713 90.430, 145.778 90.148, 132.500 90.082 C 122.600 90.032, 108.797 89.701, 101.827 89.346 C 90.881 88.787, 89.092 88.459, 88.693 86.934 C 88.439 85.963, 88.719 84.681, 89.316 84.084 C 90.095 83.305, 89.772 83, 88.169 83 C 86.941 83, 85.688 83.649, 85.384 84.442 M 152.750 84.787 C 150.599 85.229, 150.403 89, 152.531 89 C 154.084 89, 155.474 86.745, 154.844 85.247 C 154.655 84.797, 153.713 84.590, 152.750 84.787 M 50 129.517 C 41.678 130.935, 37.344 133.055, 31.687 138.475 C 26.046 143.881, 23.712 148.266, 23.592 153.684 C 23.480 158.760, 27.016 163.025, 32.962 164.988 C 36.431 166.132, 37.289 166.038, 41.365 164.066 C 43.861 162.857, 47.600 159.838, 49.675 157.356 C 54.975 151.014, 61.445 146.544, 69.009 144.001 C 72.579 142.800, 76.016 141.392, 76.647 140.872 C 78.842 139.062, 76.738 136.009, 71.246 133.034 C 63.993 129.106, 58.120 128.133, 50 129.517 M 117.500 129.178 C 116.400 129.792, 115.330 130.436, 115.121 130.609 C 114.913 130.782, 116.151 133.118, 117.871 135.800 C 119.592 138.481, 121 140.918, 121 141.215 C 121 141.513, 121.684 143.393, 122.520 145.393 L 124.040 149.031 127.117 147.439 C 129.341 146.290, 133.425 145.800, 141.834 145.674 C 151.770 145.525, 153.520 145.258, 153.791 143.850 C 154.229 141.571, 144.203 131.530, 139.546 129.584 C 135.104 127.728, 120.576 127.460, 117.500 129.178 M 122.108 132.845 C 120.949 133.635, 121.047 134.270, 122.696 136.647 C 123.784 138.216, 124.933 140.221, 125.249 141.102 C 125.741 142.475, 127.305 142.636, 136.162 142.227 C 141.848 141.965, 146.623 141.646, 146.774 141.518 C 147.631 140.791, 145.415 138.130, 141.838 135.591 C 138.451 133.188, 136.504 132.615, 130.620 132.290 C 126.704 132.074, 122.874 132.324, 122.108 132.845 M 48 133.682 C 42.359 135.652, 36.901 138.860, 33.250 142.352 C 28.196 147.185, 27.847 148.823, 32 148.213 C 35.286 147.731, 35.905 149.004, 33.396 151.086 C 28.858 154.852, 29.875 161, 35.035 161 C 37.860 161, 38 160.797, 38 156.723 C 38 152.082, 40.187 148, 42.673 148 C 43.835 148, 44.076 148.638, 43.617 150.500 C 43.277 151.875, 42.723 154.125, 42.383 155.500 C 41.444 159.308, 43.444 158.546, 47.676 153.484 C 52.855 147.288, 64.169 140, 68.609 140 C 69.374 140, 69.998 139.213, 69.996 138.250 C 69.988 134.591, 54.568 131.388, 48 133.682" stroke="none" fill="black" fill-rule="evenodd"/>
	<path fill-opacity="0.962" d="M 0 92 L 0 184 15 184 C 23.250 184, 30 183.605, 30 183.122 C 30 181.732, 27.743 180.222, 24.494 179.438 C 20.070 178.371, 14.504 175.381, 10.662 172.008 C 5.476 167.455, 4.500 162.544, 4.500 141 C 4.500 123.725, 4.690 121.805, 7.375 112 C 10.961 98.903, 15.364 89, 17.601 89 C 18.779 89, 18.963 88.645, 18.253 87.750 C 17.707 87.063, 16.713 84.801, 16.044 82.725 C 14.715 78.598, 15.831 71.171, 18.616 65.615 C 19.412 64.028, 19.762 62.453, 19.394 62.115 C 19.027 61.777, 18.525 62.063, 18.280 62.750 C 17.685 64.416, 13.847 64.340, 11.490 62.616 C 7.868 59.968, 9.980 50.107, 15.185 45.359 C 19.813 41.137, 26.621 37.618, 38.245 33.438 C 42.698 31.837, 43.213 31.265, 46.634 24.116 C 51.469 14.012, 54.775 9.995, 61.176 6.449 C 66.195 3.669, 67.101 3.509, 77 3.653 C 88.353 3.818, 95.835 5.667, 99.750 9.275 L 102 11.349 102 9.283 C 102 5.121, 117.076 2.128, 130.489 3.626 C 135.654 4.204, 137.028 4.823, 140.250 8.031 C 142.983 10.752, 144 12.610, 144 14.882 C 144 16.597, 143.550 18, 143 18 C 142.450 18, 142 18.450, 142 19 C 142 19.550, 143.371 20, 145.048 20 C 147.368 20, 149.278 21.183, 153.050 24.955 C 156.313 28.218, 159.178 30.130, 161.437 30.554 C 163.325 30.908, 165.525 31.941, 166.327 32.849 C 168.654 35.485, 171.268 50.933, 170.613 58.175 C 170.298 61.654, 169.918 69.942, 169.770 76.594 C 169.616 83.488, 169.025 89.293, 168.394 90.094 C 166.061 93.061, 166.148 95.741, 168.621 97.065 C 169.929 97.765, 171 98.680, 171 99.098 C 171 99.515, 171.602 100.459, 172.337 101.194 C 174.312 103.169, 178.347 110.797, 180.434 116.500 C 181.440 119.250, 182.654 121.928, 183.131 122.450 C 183.609 122.973, 183.997 133.998, 183.994 146.950 L 183.987 170.500 180.744 172.372 C 178.960 173.402, 175.700 175.178, 173.500 176.318 C 168.747 178.782, 168.082 179.599, 168.750 182.150 C 169.201 183.877, 170.055 184.049, 176.877 183.790 L 184.500 183.500 184.755 91.750 L 185.010 0 92.505 0 L 0 0 0 92 M 0.479 92.500 C 0.479 143.100, 0.601 163.947, 0.750 138.826 C 0.898 113.705, 0.898 72.305, 0.750 46.826 C 0.601 21.347, 0.479 41.900, 0.479 92.500 M 103.252 15.500 C 103.263 17.700, 103.468 18.482, 103.707 17.238 C 103.946 15.994, 103.937 14.194, 103.687 13.238 C 103.437 12.282, 103.241 13.300, 103.252 15.500 M 125.813 19.683 C 126.534 19.972, 127.397 19.936, 127.729 19.604 C 128.061 19.272, 127.471 19.036, 126.417 19.079 C 125.252 19.127, 125.015 19.364, 125.813 19.683 M 96 21 L 88.500 21.640 97.809 21.820 C 103.804 21.936, 106.898 21.644, 106.500 21 C 106.160 20.450, 105.346 20.081, 104.691 20.180 C 104.036 20.279, 100.125 20.648, 96 21 M 81.250 21.689 C 82.213 21.941, 83.787 21.941, 84.750 21.689 C 85.713 21.438, 84.925 21.232, 83 21.232 C 81.075 21.232, 80.287 21.438, 81.250 21.689 M 110 25.441 C 110 27.798, 111.528 28.032, 113.312 25.949 C 114.902 24.092, 114.863 24, 112.490 24 C 110.989 24, 110 24.572, 110 25.441 M 101.250 80.748 C 110.463 80.913, 125.537 80.913, 134.750 80.748 C 143.963 80.583, 136.425 80.448, 118 80.448 C 99.575 80.448, 92.037 80.583, 101.250 80.748 M 82.500 83 C 82.160 83.550, 82.359 84, 82.941 84 C 83.523 84, 84 83.550, 84 83 C 84 82.450, 83.802 82, 83.559 82 C 83.316 82, 82.840 82.450, 82.500 83 M 156.601 84.666 C 157.521 88.498, 158 88.860, 158 85.726 C 158 84.291, 157.532 82.829, 156.960 82.475 C 156.278 82.054, 156.154 82.808, 156.601 84.666 M 94.776 85.733 C 97.128 85.945, 100.728 85.942, 102.776 85.727 C 104.824 85.512, 102.900 85.339, 98.500 85.343 C 94.100 85.346, 92.424 85.522, 94.776 85.733 M 82 90 C 82 90.550, 82.477 91, 83.059 91 C 83.641 91, 83.840 90.550, 83.500 90 C 83.160 89.450, 82.684 89, 82.441 89 C 82.198 89, 82 89.450, 82 90 M 154 91.059 C 154 91.641, 154.450 91.840, 155 91.500 C 155.550 91.160, 156 90.684, 156 90.441 C 156 90.198, 155.550 90, 155 90 C 154.450 90, 154 90.477, 154 91.059 M 86 92.981 C 86 93.541, 87.425 94, 89.167 94 C 92.808 94, 92.676 93.563, 88.750 92.622 C 87.117 92.230, 86 92.376, 86 92.981 M 146.762 93.707 C 148.006 93.946, 149.806 93.937, 150.762 93.687 C 151.718 93.437, 150.700 93.241, 148.500 93.252 C 146.300 93.263, 145.518 93.468, 146.762 93.707 M 109.304 95.747 C 115.247 95.924, 124.697 95.923, 130.304 95.745 C 135.912 95.567, 131.050 95.422, 119.500 95.423 C 107.950 95.424, 103.362 95.570, 109.304 95.747 M 36.750 103.662 C 37.438 103.940, 38.563 103.940, 39.250 103.662 C 39.938 103.385, 39.375 103.158, 38 103.158 C 36.625 103.158, 36.063 103.385, 36.750 103.662 M 51.269 108.693 C 52.242 108.947, 53.592 108.930, 54.269 108.656 C 54.946 108.382, 54.150 108.175, 52.500 108.195 C 50.850 108.215, 50.296 108.439, 51.269 108.693 M 149.750 108.662 C 150.438 108.940, 151.563 108.940, 152.250 108.662 C 152.938 108.385, 152.375 108.158, 151 108.158 C 149.625 108.158, 149.063 108.385, 149.750 108.662 M 61.813 111.683 C 62.534 111.972, 63.397 111.936, 63.729 111.604 C 64.061 111.272, 63.471 111.036, 62.417 111.079 C 61.252 111.127, 61.015 111.364, 61.813 111.683 M 139.813 111.683 C 140.534 111.972, 141.397 111.936, 141.729 111.604 C 142.061 111.272, 141.471 111.036, 140.417 111.079 C 139.252 111.127, 139.015 111.364, 139.813 111.683 M 72.762 113.707 C 74.006 113.946, 75.806 113.937, 76.762 113.687 C 77.718 113.437, 76.700 113.241, 74.500 113.252 C 72.300 113.263, 71.518 113.468, 72.762 113.707 M 127.762 113.707 C 129.006 113.946, 130.806 113.937, 131.762 113.687 C 132.718 113.437, 131.700 113.241, 129.500 113.252 C 127.300 113.263, 126.518 113.468, 127.762 113.707 M 47.250 131.689 C 48.212 131.941, 49.788 131.941, 50.750 131.689 C 51.712 131.438, 50.925 131.232, 49 131.232 C 47.075 131.232, 46.288 131.438, 47.250 131.689 M 60.250 131.689 C 61.212 131.941, 62.788 131.941, 63.750 131.689 C 64.713 131.438, 63.925 131.232, 62 131.232 C 60.075 131.232, 59.288 131.438, 60.250 131.689 M 117.636 132.494 C 117.952 133.316, 118.612 133.740, 119.105 133.435 C 120.517 132.563, 120.149 131, 118.531 131 C 117.639 131, 117.288 131.587, 117.636 132.494 M 137.813 131.683 C 138.534 131.972, 139.397 131.936, 139.729 131.604 C 140.061 131.272, 139.471 131.036, 138.417 131.079 C 137.252 131.127, 137.015 131.364, 137.813 131.683 M 72.610 138.427 C 73.320 140.276, 76.363 140.589, 75.750 138.750 C 75.522 138.063, 74.586 137.355, 73.671 137.177 C 72.511 136.952, 72.190 137.331, 72.610 138.427 M 121.079 138.583 C 121.127 139.748, 121.364 139.985, 121.683 139.188 C 121.972 138.466, 121.936 137.603, 121.604 137.271 C 121.272 136.939, 121.036 137.529, 121.079 138.583 M 148.834 141.136 C 148.510 143.427, 148.146 143.517, 137 144.051 L 125.500 144.601 138.750 144.801 C 146.037 144.910, 152 144.826, 152 144.614 C 152 144.402, 151.363 143.001, 150.584 141.500 L 149.169 138.772 148.834 141.136 M 124.079 144.583 C 124.127 145.748, 124.364 145.985, 124.683 145.188 C 124.972 144.466, 124.936 143.603, 124.604 143.271 C 124.272 142.939, 124.036 143.529, 124.079 144.583 M 26.598 151.736 C 25.339 152.995, 25.986 160, 27.361 160 C 28.275 160, 28.565 159.176, 28.244 157.494 C 27.980 156.116, 28.279 154.369, 28.908 153.611 C 29.783 152.557, 29.716 152.105, 28.623 151.686 C 27.838 151.384, 26.927 151.407, 26.598 151.736 M 39.195 156.500 C 39.215 158.150, 39.439 158.704, 39.693 157.731 C 39.947 156.758, 39.930 155.408, 39.656 154.731 C 39.382 154.054, 39.175 154.850, 39.195 156.500 M 41.250 160.360 C 40.013 160.973, 39 161.818, 39 162.237 C 39 163.469, 40.018 163.131, 42.727 161 C 45.470 158.842, 44.854 158.575, 41.250 160.360" stroke="none" fill="black" fill-rule="evenodd"/>
</svg>