<svg xmlns="http://www.w3.org/2000/svg" width="100%" height="auto" viewBox="0 0 184 184" version="1.1" viewBox="0 0 184 184" width="100%" height="auto">
	<path d="M 0 92 L 0 184 38.419 184 C 69.463 184, 77.381 183.729, 79.669 182.591 C 81.226 181.816, 85.500 180.205, 89.166 179.011 C 96.430 176.645, 97.191 176.783, 103.699 181.637 L 106.897 184.024 145.699 183.762 L 184.500 183.500 184.755 91.750 L 185.010 0 92.505 0 L 0 0 0 92 M 0.479 92.500 C 0.479 143.100, 0.601 163.947, 0.750 138.826 C 0.898 113.705, 0.898 72.305, 0.750 46.826 C 0.601 21.347, 0.479 41.900, 0.479 92.500 M 68.523 31.913 C 67.436 32.338, 66.262 33.769, 65.914 35.093 L 65.281 37.500 64.138 34.678 C 63.017 31.911, 62.883 31.870, 57.248 32.561 C 54.086 32.949, 46.860 34.563, 41.189 36.147 C 24.134 40.913, 16.400 45.766, 13.418 53.575 C 11.210 59.358, 12.558 61.405, 16.770 58.660 C 25.542 52.943, 32.315 51.298, 48.903 50.855 C 56.795 50.644, 60.723 50.135, 61.656 49.201 C 63.176 47.681, 63.407 48.061, 64.378 53.697 C 65.370 59.455, 67.724 63.688, 71.564 66.618 C 74.961 69.210, 76.246 69.536, 84.356 69.856 C 91.888 70.154, 93.572 69.939, 94.590 68.547 C 95.369 67.481, 96.044 67.262, 96.463 67.940 C 97.755 70.031, 104.562 69.135, 107.405 66.500 C 108.889 65.125, 110.483 64, 110.948 64 C 112.287 64, 118 57.085, 118 55.465 C 118 53.242, 118.889 53.653, 123.027 57.792 C 129.017 63.782, 136.276 67.255, 143.409 67.544 C 146.759 67.680, 150.303 68.117, 151.285 68.516 C 153.961 69.603, 161.618 67.097, 165.215 63.956 C 168.034 61.495, 168.393 60.584, 168.408 55.842 C 168.417 52.904, 167.602 46.982, 166.597 42.681 C 164.189 32.383, 166.043 33.057, 135.311 31.319 L 127.122 30.857 126.736 35.178 L 126.349 39.500 126.175 35.254 L 126 31.008 101.763 31.078 C 87.615 31.119, 77.037 31.554, 76.352 32.123 C 75.584 32.760, 74.954 32.735, 74.530 32.049 C 73.787 30.847, 71.391 30.793, 68.523 31.913 M 75.252 42.500 C 75.263 44.700, 75.468 45.482, 75.707 44.238 C 75.946 42.994, 75.937 41.194, 75.687 40.238 C 75.437 39.282, 75.241 40.300, 75.252 42.500 M 98.813 47.683 C 99.534 47.972, 100.397 47.936, 100.729 47.604 C 101.061 47.272, 100.471 47.036, 99.417 47.079 C 98.252 47.127, 98.015 47.364, 98.813 47.683 M 144.158 56 C 144.158 57.375, 144.385 57.938, 144.662 57.250 C 144.940 56.563, 144.940 55.438, 144.662 54.750 C 144.385 54.063, 144.158 54.625, 144.158 56 M 108.079 60.583 C 108.127 61.748, 108.364 61.985, 108.683 61.188 C 108.972 60.466, 108.936 59.603, 108.604 59.271 C 108.272 58.939, 108.036 59.529, 108.079 60.583 M 93.079 62.583 C 93.127 63.748, 93.364 63.985, 93.683 63.188 C 93.972 62.466, 93.936 61.603, 93.604 61.271 C 93.272 60.939, 93.036 61.529, 93.079 62.583 M 15.217 97.238 C 13.644 99.134, 9.451 114.090, 7.469 124.877 C 5.110 137.711, 6.493 160.882, 10.012 167.508 C 11.683 170.653, 17.380 174.068, 26.116 177.159 C 33.550 179.790, 35.195 179.995, 48.322 179.927 C 56.120 179.887, 64.750 179.458, 67.500 178.973 C 78.875 176.968, 88.431 174.529, 90.500 173.102 C 91.050 172.723, 93.975 171.607, 97 170.621 C 100.025 169.636, 103.400 168.453, 104.500 167.993 C 105.600 167.532, 108.750 166.389, 111.500 165.453 C 117.782 163.314, 123 157.928, 122.999 153.583 C 122.999 149.685, 119.771 141.122, 116.358 135.964 C 114.146 132.622, 113.167 131.982, 110.117 131.884 C 108.128 131.820, 107.241 131.571, 108.147 131.330 C 109.053 131.090, 110.036 129.972, 110.330 128.846 C 110.630 127.699, 111.343 127.094, 111.952 127.470 C 112.550 127.840, 114.493 127.670, 116.270 127.092 C 118.046 126.514, 121.075 125.952, 123 125.844 C 124.925 125.735, 126.950 125.316, 127.500 124.912 C 128.851 123.920, 138.867 125.691, 142.110 127.496 C 143.545 128.294, 144.990 128.676, 145.321 128.345 C 145.652 128.014, 146.836 128.814, 147.953 130.122 C 152.252 135.159, 156 140.314, 156 141.189 C 156 141.691, 157.533 142.743, 159.408 143.526 C 163.114 145.074, 167.827 150.224, 166.074 150.809 C 165.485 151.005, 163.434 150.195, 161.516 149.010 C 158.440 147.109, 156.461 146.838, 144.764 146.719 C 136.752 146.637, 130.740 147.016, 129.580 147.677 C 128.164 148.483, 127.572 150.119, 127.323 153.917 C 127.101 157.305, 126.127 160.361, 124.476 162.857 C 121.936 166.695, 116.948 171, 115.040 171 C 114.468 171, 114 171.450, 114 172 C 114 172.550, 113.295 173, 112.434 173 C 111.573 173, 109.969 173.481, 108.870 174.070 C 105.632 175.802, 108.227 177.618, 116.798 179.617 C 126.950 181.985, 145.822 182, 155.500 179.648 C 159.350 178.712, 163.027 177.883, 163.672 177.806 C 164.317 177.730, 168.360 175.829, 172.656 173.583 C 179.213 170.156, 180.614 168.978, 181.379 166.250 C 181.879 164.463, 182.674 163, 183.145 163 C 184.271 163, 184.258 134.277, 183.131 133.581 C 182.654 133.286, 181.973 131.232, 181.619 129.016 C 180.747 123.566, 175.456 110.359, 172.298 105.750 C 169.475 101.630, 167.952 101.138, 165.872 103.673 C 165.118 104.592, 161.853 107.060, 158.619 109.157 C 153.162 112.694, 146.526 115.177, 134.750 118.086 C 132.137 118.732, 130 119.609, 130 120.035 C 130 120.461, 128.202 120.569, 126.004 120.274 C 121.445 119.662, 113.372 121.554, 110.689 123.862 C 109.280 125.075, 108.706 125.143, 108.105 124.169 C 107.635 123.409, 104.295 122.752, 99.593 122.495 L 91.855 122.073 89.849 126.609 C 88.745 129.104, 88.088 131.788, 88.390 132.573 C 89.174 134.616, 88.042 137, 86.287 137 C 85.462 137, 83.103 138.335, 81.043 139.966 C 78.983 141.597, 73.969 144.162, 69.899 145.664 C 63.365 148.078, 61.507 149.400, 54 156.984 C 44.320 166.763, 40.256 168.721, 33.460 166.884 C 29.116 165.710, 24.605 162, 22.408 157.795 C 18.923 151.123, 30.595 134.597, 43.067 128.545 C 47.641 126.325, 50.041 125.873, 58.250 125.683 C 63.612 125.559, 68 125.811, 68 126.242 C 68 126.674, 70.430 128.138, 73.399 129.497 C 77.960 131.583, 79.279 131.799, 81.899 130.885 C 84.499 129.979, 85 129.285, 85 126.593 C 85 121.501, 83.331 120.295, 75.250 119.548 C 69.613 119.028, 67.985 119.170, 67.932 120.189 C 67.895 120.910, 67.376 120.487, 66.780 119.250 C 66.149 117.942, 64.787 117, 63.525 117 C 62.332 117, 59.232 116.276, 56.636 115.392 C 54.039 114.507, 50.793 113.998, 49.422 114.260 C 47.679 114.593, 46.628 114.174, 45.929 112.868 C 45.380 111.841, 44.067 111, 43.012 111 C 41.957 111, 39.835 110.494, 38.297 109.875 C 36.759 109.257, 34.375 108.302, 33 107.754 C 29.749 106.457, 24.643 103.809, 23.979 103.075 C 23.693 102.759, 21.851 101.018, 19.887 99.207 C 17.019 96.562, 16.100 96.175, 15.217 97.238" stroke="none" fill="black" fill-rule="evenodd"/>
</svg>