<svg width="100%" height="auto" version="1.1" xmlns="http://www.w3.org/2000/svg" desc="Created with imagetracer.js version 1.2.6"  viewBox="0 0 184 184" width="100%" height="auto"><path fill="rgb(246,198,73)" stroke="rgb(246,198,73)" stroke-width="1" opacity="1" d="M 78.5 31 L 91.5 31 Q 92.3 33.8 96.5 33 L 97.5 32 Q 105.7 33.7 109.5 31 L 112.5 32 L 114.5 32 L 122.5 31 L 126 33.5 L 126.5 40 L 127 32.5 L 128.5 31 Q 139 30 145 32 L 147.5 40 L 148 35.5 Q 145.8 34.3 148.5 33 L 162.5 34 L 165 36.5 L 168 49.5 L 168 60.5 L 163 64.5 L 161.5 67 L 152.5 69 L 147.5 66 L 144.5 68 Q 143.2 65.8 138.5 67 L 129.5 63 L 122 56.5 L 119.5 53 Q 117.3 52.3 118 54.5 Q 116.6 60.6 111.5 63 Q 108.3 61.7 108.5 57 L 108 63.5 L 109 64.5 L 105.5 68 L 98.5 69 L 95 66.5 L 93.5 69 L 76.5 69 L 67 61.5 Q 63.3 54.2 65 41.5 Q 67.5 40 66 34.5 L 67.5 33 L 73.5 32 L 75 33.5 L 75.5 48 L 76 33.5 L 78.5 31 Z M 79 32 L 77 39 L 77 46 L 83 50 Q 84 48 89 49 L 92 53 L 95 63 L 100 68 Q 106 68 108 65 L 105 55 L 102 51 L 102 49 L 97 49 Q 98 46 96 47 L 92 39 L 92 32 L 79 32 Z M 130 32 L 128 34 Q 127 40 131 43 Q 130 45 133 44 L 135 46 Q 134 42 140 44 L 146 53 L 146 57 L 151 67 Q 159 68 162 65 L 155 45 L 152 46 L 150 45 Q 145 43 145 36 Q 141 30 130 32 Z M 73 33 L 67 36 L 67 59 L 70 64 L 78 68 L 93 68 L 89 60 L 89 56 L 88 54 L 80 54 L 77 52 L 74 50 L 73 46 Q 72 40 74 39 Q 75 34 73 33 Z M 99 33 L 97 35 L 98 44 L 104 46 L 110 55 Q 109 59 112 61 Q 116 58 117 53 L 121 51 L 123 56 Q 130 65 145 66 L 142 55 L 139 49 L 131 49 Q 131 46 128 47 L 125 42 L 124 35 L 123 33 L 105 33 L 102 34 L 99 33 Z M 149 34 L 149 38 Q 150 41 156 40 L 159 44 L 164 58 Q 163 62 166 61 L 167 55 L 165 43 Q 161 41 164 40 L 163 36 Q 158 33 149 34 Z M 149 41 L 149 44 L 156 43 Q 155 40 154 42 L 149 41 Z M 87 51 Q 86 54 89 53 L 91 58 L 91 54 L 87 51 Z M 145 53 L 143 56 L 144 59 L 145 59 L 145 53 Z " /><path fill="rgb(246,198,73)" stroke="rgb(246,198,73)" stroke-width="1" opacity="1" d="M 56.5 33 Q 62.5 31.5 64 34.5 Q 61.1 39.1 62 47.5 L 60.5 49 L 30.5 51 L 18.5 56 L 15.5 59 L 13 59 Q 13.3 49 20.5 45 L 32.5 39 L 56.5 33 Z " /><path fill="rgb(246,198,73)" stroke="rgb(246,198,73)" stroke-width="1" opacity="1" d="M 16.5 97 Q 18.8 96.3 18 98.5 L 23 102 Q 21.9 104.7 24.5 104 L 27.5 107 L 45 113.5 Q 48.6 116.4 47 124.5 L 46 127 Q 35.5 130.3 29 138.5 L 25.5 143 L 26 141.5 L 28 137 L 30 137 L 30 135 Q 32.7 136.1 32 133.5 L 45 124.5 L 45 117.5 L 41.5 113 L 30.5 110 L 22 105 Q 23.1 102.3 20.5 103 L 16.5 98 L 13 111.5 L 11 114.5 L 11 119.5 L 8 131.5 L 8 151.5 L 10 156.5 L 11 166.5 L 14.5 170 L 31.5 177 Q 33 174.5 34.5 178 L 42.5 177 L 43.5 178 L 55.5 178 L 56.5 177 L 66.5 177 L 80.5 173 L 84.5 173 L 86.5 171 L 89.5 171 L 95.5 168 L 98.5 168 L 100.5 166 L 114.5 162 L 119 158.5 Q 121.5 155 120 147.5 L 119 142.5 L 114 134 L 94.5 136 L 86.5 139 L 76.5 146 L 62 151 Q 63.1 153.7 60.5 153 L 56 159 Q 53.3 157.9 54 160.5 L 43.5 169 L 35.5 170 L 25 165 L 22 159 L 18 157.5 L 18 154.5 L 24.5 144 L 25 145.5 L 20 155.5 L 27.5 165 L 33.5 168 L 41.5 168 Q 49.3 164.8 54 158.5 L 61.5 150 Q 78.6 144.6 91.5 135 L 96.5 135 L 99.5 133 L 106.5 132 L 108.5 133 L 111.5 132 L 117 136.5 L 122 149.5 L 121 151.5 L 122 154.5 Q 120.8 160.3 116.5 163 L 100.5 169 L 97.5 169 L 86.5 174 L 66.5 179 L 32.5 179 L 22.5 176 Q 15.2 173.8 11 168.5 L 9 164.5 L 8 153.5 L 7 152.5 L 7 128.5 L 12 105.5 L 14 99.5 L 16.5 97 Z " /><path fill="rgb(246,198,73)" stroke="rgb(246,198,73)" stroke-width="1" opacity="1" d="M 167.5 103 Q 171.5 102.5 172 105.5 L 181 125.5 L 182 139.5 L 183 140.5 L 183 157.5 L 181 167.5 L 177.5 171 L 167.5 176 L 160.5 177 L 156.5 179 L 149.5 179 L 141.5 181 L 130.5 181 L 129.5 180 L 116.5 179 L 109 175.5 L 124 165.5 L 128 158.5 L 128 149.5 L 129.5 148 L 132.5 147 L 151.5 147 Q 153 149.5 158.5 148 L 165.5 153 L 168 153 Q 167.8 146.6 162.5 144 L 158 143 L 156 138.5 L 148 129.5 L 147.5 125 L 144.5 128 L 143.5 127 L 139.5 125 Q 133.4 125.8 131 124 L 130 121.5 L 131.5 120 L 149.5 115 Q 160.2 110.7 167.5 103 Z M 168 105 L 165 108 Q 162 107 163 110 L 147 118 L 143 118 L 140 120 Q 134 119 132 122 L 145 126 L 146 124 Q 147 119 153 120 Q 154 125 150 127 L 151 131 L 156 138 L 163 143 Q 165 142 164 145 L 167 147 Q 166 149 169 148 L 169 152 Q 171 153 169 154 L 165 154 L 157 149 Q 151 151 150 148 L 136 148 L 130 149 Q 131 160 125 166 L 123 169 L 116 174 Q 112 173 113 176 L 119 178 Q 125 176 127 179 L 154 178 L 171 173 L 178 169 L 181 163 L 181 134 L 178 122 L 171 107 L 168 105 Z " /><path fill="rgb(246,198,73)" stroke="rgb(246,198,73)" stroke-width="1" opacity="1" d="M 48 115 L 54.5 115 Q 56.2 117.8 61.5 117 L 67 121.5 L 65.5 125 L 56.5 124 L 55.5 125 L 48 125 L 48 115 Z M 50 116 L 50 122 L 53 124 L 56 122 L 61 123 Q 66 125 64 120 L 50 116 Z " /><path fill="rgb(246,198,73)" stroke="rgb(246,198,73)" stroke-width="1" opacity="1" d="M 69.5 120 L 82.5 122 L 84 123.5 Q 85.3 128.8 82.5 130 L 80.5 131 L 78.5 131 L 70 127 L 68 121.5 L 69.5 120 Z " /><path fill="rgb(246,198,73)" stroke="rgb(246,198,73)" stroke-width="1" opacity="1" d="M 122.5 121 Q 127.9 119.1 127 122.5 L 123.5 125 Q 116.8 124.3 113.5 127 L 112 124.5 L 115.5 122 Q 121 123.5 122.5 121 Z " /><path fill="rgb(246,198,73)" stroke="rgb(246,198,73)" stroke-width="1" opacity="1" d="M 93.5 123 L 98.5 125 L 103.5 125 L 105.5 124 Q 109 125.3 108 130 L 105.5 131 L 103.5 131 L 97.5 131 Q 95.8 133.8 90.5 133 L 89 130.5 L 93.5 123 Z " /><path fill="rgb(246,198,73)" stroke="rgb(246,198,73)" stroke-width="1" opacity="1" d="M 93.5 178 L 97.5 178 L 104 182.5 Q 104.7 185.1 102 184 Q 103.1 181.3 100.5 182 L 94.5 179 Q 91.5 182.9 85 182 Q 86.2 185.7 81 184 Q 79.8 181 83.5 182 L 93.5 178 Z " /><path fill="rgb(252,246,239)" stroke="rgb(252,246,239)" stroke-width="1" opacity="1" d="M 80.5 33 L 90.5 33 L 92 34.5 L 92 42.5 L 96.5 49 Q 102.1 49.5 104 53.5 L 107 64.5 Q 104 67.9 98 67 L 90.5 50 Q 87.9 50.7 89 48 L 85.5 48 L 80.5 49 Q 76.5 46.5 78 38.5 L 80.5 33 Z " /><path fill="rgb(252,246,239)" stroke="rgb(252,246,239)" stroke-width="1" opacity="1" d="M 129.5 33 Q 139.2 31.9 144 34 Q 144.4 41.8 149.5 46 L 155 46 L 155 48.5 L 161 64.5 L 159.5 66 L 151.5 66 L 143 46 L 136.5 43 L 132.5 44 L 128 34.5 L 129.5 33 Z " /><path fill="rgb(227,143,21)" stroke="rgb(227,143,21)" stroke-width="1" opacity="1" d="M 75.5 29 L 78.5 30 L 126.5 30 L 128.5 30 L 155.5 31 L 163.5 33 L 166 35.5 L 170 54.5 Q 167.5 56 169 61.5 L 163.5 68 L 155.5 70 L 144.5 70 L 130.5 66 Q 125.7 59.5 118 58 L 111.5 66 L 104.5 70 L 90.5 72 L 88.5 71 Q 86.8 73.7 80.5 72 L 71.5 69 L 66 63.5 L 61.5 52 L 40.5 52 Q 39.3 54.3 34.5 53 L 22.5 56 L 16.5 61 L 12.5 61 Q 10 60 11 55.5 Q 13.6 48.1 19.5 44 L 32.5 37 L 39.5 36 L 48.5 32 L 66.5 30 L 71.5 31 L 75.5 29 Z M 79 31 L 76 34 L 76 48 L 75 34 L 74 32 L 68 33 L 66 35 Q 68 40 65 42 Q 63 54 67 62 L 77 69 L 94 69 L 95 67 L 99 69 L 106 68 L 109 65 L 108 64 L 109 57 Q 108 62 112 63 Q 117 61 118 55 Q 117 52 120 53 L 122 57 L 130 63 L 139 67 Q 143 66 145 68 L 148 66 L 153 69 L 162 67 L 163 65 L 168 61 L 168 50 L 165 37 L 163 34 L 149 33 Q 146 34 148 36 L 148 40 L 145 32 Q 139 30 129 31 L 127 33 L 127 40 L 126 34 L 123 31 L 115 32 L 113 32 L 110 31 Q 106 34 98 32 L 97 33 Q 92 34 92 31 L 79 31 Z M 57 33 L 33 39 L 21 45 Q 13 49 13 59 L 16 59 L 19 56 L 31 51 L 61 49 L 62 48 Q 61 39 64 35 Q 63 31 57 33 Z " /><path fill="rgb(227,143,21)" stroke="rgb(227,143,21)" stroke-width="1" opacity="1" d="M 149 41 L 153.5 42 Q 154.8 39.8 156 42.5 L 149 44 L 149 41 Z " /><path fill="rgb(227,143,21)" stroke="rgb(227,143,21)" stroke-width="1" opacity="1" d="M 137 46 Q 140.8 45.3 142 48.5 L 143 50.5 L 141 51 L 141 48 Q 135.8 49.7 137 46 Z " /><path fill="rgb(227,143,21)" stroke="rgb(227,143,21)" stroke-width="1" opacity="1" d="M 87 51 L 91 53.5 L 90.5 58 L 88.5 53 Q 85.9 53.7 87 51 Z " /><path fill="rgb(227,143,21)" stroke="rgb(227,143,21)" stroke-width="1" opacity="1" d="M 144.5 53 L 145 58.5 L 144 58.5 L 143 55.5 L 144.5 53 Z " /><path fill="rgb(227,143,21)" stroke="rgb(227,143,21)" stroke-width="1" opacity="1" d="M 16.5 92 Q 22.6 99.8 32 103 Q 30.9 105.7 33.5 105 L 54.5 113 L 58.5 113 L 67.5 116 L 72.5 116 L 77.5 118 L 105.5 119 L 106.5 118 L 126.5 118 L 130.5 116 L 137.5 116 L 149.5 113 Q 159.8 109.3 166 101.5 L 167.5 99 L 175 107.5 L 179 119.5 L 181 121.5 L 182 128 L 184 128.5 L 184 165.5 L 179.5 171 L 166 178.5 Q 166.6 183.9 165.5 184 L 104 184 L 102.5 181 Q 100.3 177.3 93.5 178 Q 88.5 181.8 81 182 L 80.5 184 L 32 184 L 31 179 Q 17.8 177.4 10 169.5 L 8 166.5 L 8 161.5 L 6 155.5 L 6 126.5 L 8 120.5 L 8 115.5 L 11 108.5 L 11 104.5 L 16.5 92 Z M 17 97 L 14 100 L 12 106 L 7 129 L 7 153 L 8 154 L 9 165 L 11 169 Q 15 174 23 176 L 33 179 L 67 179 L 87 174 L 98 169 L 101 169 L 117 163 Q 121 160 122 155 L 121 152 L 122 150 L 119 142 L 120 140 L 124 149 L 127 149 L 133 146 L 150 147 L 133 147 L 130 148 L 128 150 L 128 159 L 124 166 L 109 176 L 117 179 L 130 180 L 131 181 L 142 181 L 150 179 L 157 179 L 161 177 L 168 176 L 178 171 L 181 168 L 183 158 L 183 141 L 182 140 L 181 126 L 174 109 L 170 103 L 168 103 Q 160 111 150 115 L 132 120 L 130 122 L 131 124 Q 133 126 140 125 L 145 128 L 148 124 L 150 123 Q 151 126 148 125 L 148 130 L 156 139 L 158 143 L 163 144 Q 168 147 168 153 L 166 153 L 159 148 L 153 148 L 155 145 L 154 143 Q 155 139 152 140 L 149 134 L 138 127 L 121 127 L 115 129 L 114 132 L 115 134 L 117 136 L 112 132 L 109 133 L 107 132 L 100 133 L 97 135 L 92 135 Q 79 145 62 150 L 54 159 Q 49 165 42 168 L 34 168 L 28 165 L 25 162 L 24 159 L 33 166 Q 41 167 45 164 L 52 156 L 65 146 L 73 144 L 79 140 L 78 137 L 66 129 L 55 127 L 43 130 L 32 137 L 30 140 L 29 139 Q 35 130 46 127 L 47 125 Q 49 116 45 114 L 28 107 L 25 104 Q 22 105 23 102 L 18 99 Q 19 96 17 97 Z M 48 115 L 48 125 L 56 125 L 57 124 L 66 125 L 67 122 L 62 117 Q 56 118 55 115 L 48 115 Z M 70 120 L 68 122 L 70 127 L 79 131 L 81 131 L 83 130 Q 85 129 84 124 L 83 122 L 70 120 Z M 123 121 Q 121 124 116 122 L 112 125 L 114 127 Q 117 124 124 125 L 127 123 Q 128 119 123 121 Z M 94 123 L 89 131 L 91 133 Q 96 134 98 131 L 104 131 L 106 131 L 108 130 Q 109 125 106 124 L 104 125 L 99 125 L 94 123 Z " /><path fill="rgb(227,143,21)" stroke="rgb(227,143,21)" stroke-width="1" opacity="1" d="M 22.5 150 L 23 157.5 L 20 155.5 L 22.5 150 Z " /><path fill="rgb(84,132,55)" stroke="rgb(84,132,55)" stroke-width="1" opacity="1" d="M 66.5 5 L 86.5 5 Q 88.8 7.7 94.5 7 Q 95.8 10.7 100 10 L 103 16.5 L 102 20 L 83.5 19 Q 74.2 21.7 68.5 28 L 45.5 32 L 46 30.5 L 46 27.5 L 51 17.5 L 57.5 10 L 66.5 5 Z " /><path fill="rgb(84,132,55)" stroke="rgb(84,132,55)" stroke-width="1" opacity="1" d="M 110.5 5 L 133.5 5 L 142 11.5 L 143 15.5 L 139.5 17 L 138.5 16 L 130.5 16 Q 128.5 19 122.5 18 L 114.5 23 L 110.5 23 L 107 21 Q 107.8 17.6 105 16.5 L 105 11.5 L 103 9.5 L 110.5 5 Z " /><path fill="rgb(84,132,55)" stroke="rgb(84,132,55)" stroke-width="1" opacity="1" d="M 129.5 20 L 142.5 20 L 153 25 L 154 30 L 144.5 30 L 136.5 28 L 122.5 28 Q 121.3 30.2 116.5 29 L 114 28 Q 112.9 25.3 115.5 26 L 129.5 20 Z " /><path fill="rgb(84,132,55)" stroke="rgb(84,132,55)" stroke-width="1" opacity="1" d="M 81.5 23 L 103.5 23 L 109 26.5 Q 109.8 28.8 107.5 28 L 106.5 29 L 91.5 29 L 88.5 28 L 86.5 29 L 85.5 28 L 75 28 Q 73.9 25.3 76.5 26 L 81.5 23 Z " /><path fill="rgb(84,132,55)" stroke="rgb(84,132,55)" stroke-width="1" opacity="1" d="M 40.5 53 L 60.5 53 L 61 54.5 Q 64.5 56.5 64 62.5 L 70.5 69 L 75.5 72 L 101.5 72 Q 112.1 68.6 118 60.5 Q 117.2 57.9 120.5 59 L 128 64 Q 126.9 66.7 129.5 66 L 134.5 69 L 144.5 71 L 156.5 71 L 166.5 67 Q 170.9 72.6 169 84.5 Q 166.4 95.4 159.5 102 L 149.5 108 L 136.5 110 L 133.5 112 L 96.5 115 L 95.5 114 L 77.5 113 Q 76 110.5 70.5 112 L 66.5 110 L 61.5 110 L 51.5 107 L 49.5 105 L 45.5 105 L 37.5 102 L 30.5 97 L 28 97 Q 29.1 94.3 26.5 95 L 18 84.5 L 17 74.5 L 20 63.5 L 24.5 57 L 32.5 54 Q 38.8 55.8 40.5 53 Z M 85 79 L 80 86 L 81 92 L 86 95 Q 92 94 95 97 L 145 97 Q 147 94 154 94 L 157 91 Q 159 92 158 90 L 158 88 L 160 87 L 159 82 L 156 80 Q 151 81 150 79 L 85 79 Z " /><path fill="rgb(84,132,55)" stroke="rgb(84,132,55)" stroke-width="1" opacity="1" d="M 124.5 131 Q 141.1 129.9 147 139.5 L 146.5 143 L 125 143 L 120 133.5 L 124.5 131 Z M 123 133 L 126 142 L 132 140 L 143 140 L 144 141 Q 147 142 145 138 L 134 133 L 123 133 Z " /><path fill="rgb(84,132,55)" stroke="rgb(84,132,55)" stroke-width="1" opacity="1" d="M 51.5 132 L 64.5 133 L 71 137.5 Q 72.3 141.3 68.5 140 L 60.5 143 L 47 154.5 L 46 158 L 42.5 159 Q 39.8 157.6 41 153 Q 44 154.3 43 150.5 Q 45.3 149.3 42.5 148 Q 40.3 147.3 41 149.5 L 39 151.5 Q 40.2 156.2 38 157.5 L 39 160.5 Q 38 163 33.5 162 L 30 159.5 Q 28.5 151 34 149.5 L 31.5 148 L 28.5 150 L 29 148.5 Q 30.8 141.3 36.5 138 L 39 138 Q 37.9 135.3 40.5 136 L 51.5 132 Z M 51 134 L 40 138 L 32 145 L 32 146 L 36 146 L 36 151 L 34 151 L 31 158 Q 32 161 37 160 Q 36 151 41 147 Q 45 146 46 150 L 43 155 Q 45 158 46 155 L 48 152 Q 55 143 67 139 Q 69 140 68 138 L 62 134 L 51 134 Z " /><path fill="rgb(16,19,5)" stroke="rgb(16,19,5)" stroke-width="1" opacity="1" d="M 0 0 L 184 0 L 184 123.5 L 182 122.5 L 176 106.5 L 168.5 97 Q 165.2 95.9 166 98.5 L 162 104 L 154.5 109 L 146.5 112 L 140.5 112 L 131.5 115 Q 123.2 113.7 119.5 117 L 85.5 117 L 80.5 115 L 71.5 115 L 63.5 112 L 58.5 112 Q 55.3 108.7 48.5 109 L 46.5 107 L 42.5 107 L 40.5 105 L 34.5 104 L 21 93.5 L 19.5 91 L 16.5 90 L 13 94.5 L 10 102.5 L 10 106.5 L 5 122.5 L 4 151.5 L 5 152.5 L 6 164.5 L 10.5 172 L 22.5 179 Q 28.3 178.2 30 181.5 L 29.5 184 L 0 184 L 0 0 Z M 67 5 L 62 8 L 59 8 Q 60 11 58 10 Q 49 17 46 30 L 43 33 L 31 36 L 17 44 L 10 54 L 10 61 L 14 63 L 23 59 L 20 64 L 17 75 Q 16 84 20 88 Q 19 90 22 89 L 27 95 Q 29 94 28 97 L 31 97 L 38 102 L 58 108 L 61 110 L 67 110 L 77 113 L 87 113 L 92 115 L 109 115 L 110 114 L 134 112 L 137 110 L 145 110 L 160 102 Q 166 96 169 86 L 169 71 L 168 70 L 168 67 L 171 61 L 171 50 L 169 46 L 169 41 L 167 33 L 164 31 L 160 31 L 154 29 L 153 25 L 143 20 L 128 20 L 122 23 L 119 23 L 113 28 L 111 28 L 106 23 L 82 23 L 71 29 L 70 27 L 79 21 L 87 19 L 102 20 L 103 17 L 100 10 L 88 5 L 67 5 Z M 111 5 L 103 9 L 107 21 L 111 23 L 115 23 L 124 18 L 135 17 L 136 16 L 138 17 Q 142 18 143 16 L 142 12 L 135 5 L 111 5 Z " /><path fill="rgb(16,19,5)" stroke="rgb(16,19,5)" stroke-width="1" opacity="1" d="M 86.5 79 L 91.5 80 L 111.5 80 L 112.5 79 L 127.5 79 L 128.5 80 L 154.5 80 L 159 83.5 L 158 89.5 L 155.5 92 L 152.5 94 L 147.5 94 L 139.5 97 L 98.5 97 L 84 94 Q 85.1 91.3 82.5 92 Q 79.4 90.6 80 85.5 L 83 80 L 86.5 79 Z M 88 81 L 84 82 L 82 87 L 82 89 Q 85 88 84 91 L 90 93 Q 94 92 93 95 L 142 95 L 145 93 Q 149 94 151 92 L 153 92 Q 152 89 155 90 L 157 87 L 157 84 Q 154 85 155 82 L 152 81 Q 146 80 145 82 L 144 81 L 88 81 Z " /><path fill="rgb(16,19,5)" stroke="rgb(16,19,5)" stroke-width="1" opacity="1" d="M 91.5 85 L 120 85.5 Q 116.9 87.9 110.5 87 L 108.5 86 L 103.5 87 L 100.5 86 L 97.5 87 L 95.5 86 L 92.5 87 L 91.5 85 Z " /><path fill="rgb(16,19,5)" stroke="rgb(16,19,5)" stroke-width="1" opacity="1" d="M 120.5 129 Q 134.6 127.3 142 131 Q 140.8 134 144.5 133 L 148 138 Q 150.7 136.9 150 139.5 L 153 145 L 129.5 145 Q 127.5 147.8 123 147 L 123 142.5 L 116 131 L 120.5 129 Z M 124 131 L 120 134 L 127 144 L 128 143 L 148 143 L 147 140 Q 148 137 145 138 L 145 136 L 134 131 L 124 131 Z " /><path fill="rgb(16,19,5)" stroke="rgb(16,19,5)" stroke-width="1" opacity="1" d="M 49.5 130 L 61.5 130 L 67 131 Q 65.8 134 69.5 133 L 73.5 136 L 76 136 Q 77 139.8 74.5 141 L 66.5 143 L 53 151 L 53 153 Q 50.3 151.9 51 154.5 L 48 159 L 42.5 163 L 35.5 165 Q 28.1 163.9 25 158.5 L 24 152.5 L 26 145.5 L 29 141 Q 31.7 142.1 31 139.5 L 39.5 133 L 49.5 130 Z M 52 132 L 41 135 L 30 143 L 28 147 Q 27 150 30 151 L 32 148 L 34 150 Q 29 151 30 160 Q 32 163 38 162 L 39 161 L 39 153 L 41 150 L 43 149 Q 44 153 41 154 Q 40 158 43 159 L 46 158 L 51 151 Q 53 152 52 149 L 66 141 L 70 141 Q 72 140 71 136 L 69 135 Q 65 136 66 133 L 61 132 L 52 132 Z " /><path fill="rgb(16,19,5)" stroke="rgb(16,19,5)" stroke-width="1" opacity="1" d="M 183.5 170 L 184 184 L 168.5 184 Q 167.5 184 168 179.5 L 183.5 170 Z " /><path fill="rgb(139,92,22)" stroke="rgb(139,92,22)" stroke-width="1" opacity="1" d="M 69.5 27 L 70.5 29 L 74.5 27 L 75.5 28 Q 83.7 26.3 87.5 29 L 90.5 28 L 91.5 29 L 106.5 29 L 109.5 27 L 112.5 28 L 114.5 28 L 121.5 29 L 122.5 28 L 136.5 28 L 144 29.5 L 128.5 30 L 126.5 30 L 78.5 30 L 75.5 29 Q 73.2 31.7 67.5 31 L 61 29.5 L 69.5 27 Z " /><path fill="rgb(139,92,22)" stroke="rgb(139,92,22)" stroke-width="1" opacity="1" d="M 154.5 29 Q 157.4 31.6 163.5 31 L 167 33 L 169 40.5 L 169 45.5 L 171 49.5 L 171 60.5 L 167.5 69 L 166.5 67 L 161.5 69 L 161.5 68 L 163.5 68 L 168 63.5 L 170 53.5 L 166 39.5 L 166 35.5 L 163.5 33 L 155.5 31 L 146 30.5 L 154.5 29 Z " /><path fill="rgb(139,92,22)" stroke="rgb(139,92,22)" stroke-width="1" opacity="1" d="M 45.5 30 L 45.5 32 L 52.5 31 L 52.5 32 L 48.5 32 L 39.5 36 L 32.5 37 Q 20.9 40.9 14 49.5 L 11 55.5 L 11 59.5 Q 12 62 16.5 61 L 22.5 56 L 31.5 54 L 31.5 55 L 26.5 56 L 17.5 62 L 13.5 63 L 10 60.5 L 10 53.5 L 16.5 44 L 30.5 36 L 42.5 33 L 45.5 30 Z " /><path fill="rgb(139,92,22)" stroke="rgb(139,92,22)" stroke-width="1" opacity="1" d="M 40.5 52 L 61.5 52 L 63 53.5 L 64 58.5 L 63 58.5 L 61 53 L 34.5 54 L 34.5 53 Q 39.3 54.3 40.5 52 Z " /><path fill="rgb(139,92,22)" stroke="rgb(139,92,22)" stroke-width="1" opacity="1" d="M 121.5 59 L 127 63.5 L 124.5 62 L 121.5 59 Z " /><path fill="rgb(139,92,22)" stroke="rgb(139,92,22)" stroke-width="1" opacity="1" d="M 117.5 60 L 111.5 67 L 108.5 69 L 110.5 66 L 117.5 60 Z " /><path fill="rgb(139,92,22)" stroke="rgb(139,92,22)" stroke-width="1" opacity="1" d="M 64.5 61 L 71 68.5 L 64 62.5 L 64.5 61 Z " /><path fill="rgb(139,92,22)" stroke="rgb(139,92,22)" stroke-width="1" opacity="1" d="M 128.5 64 L 130.5 66 L 138 68.5 L 134.5 69 L 128 66 L 128.5 64 Z " /><path fill="rgb(139,92,22)" stroke="rgb(139,92,22)" stroke-width="1" opacity="1" d="M 72.5 69 L 80 71.5 L 75.5 72 L 72.5 69 Z " /><path fill="rgb(139,92,22)" stroke="rgb(139,92,22)" stroke-width="1" opacity="1" d="M 105.5 69 L 107 69.5 Q 102.8 73.3 93.5 72 L 93.5 71 Q 101.5 72 105.5 69 Z " /><path fill="rgb(139,92,22)" stroke="rgb(139,92,22)" stroke-width="1" opacity="1" d="M 139.5 69 L 155.5 70 L 159.5 69 L 159.5 70 Q 154 72.5 144.5 71 L 139.5 70 L 139.5 69 Z " /><path fill="rgb(139,92,22)" stroke="rgb(139,92,22)" stroke-width="1" opacity="1" d="M 91.5 79 L 112 79.5 L 91.5 80 L 91.5 79 Z " /><path fill="rgb(139,92,22)" stroke="rgb(139,92,22)" stroke-width="1" opacity="1" d="M 128.5 79 L 150 79.5 L 128.5 80 L 128.5 79 Z " /><path fill="rgb(139,92,22)" stroke="rgb(139,92,22)" stroke-width="1" opacity="1" d="M 87.5 81 L 143.5 81 L 144.5 82 Q 146 79.5 151.5 81 L 155 82 Q 154 85 157 84 L 157 86.5 L 154.5 90 Q 151.9 89.3 153 92 L 150.5 92 Q 149.2 94.3 144.5 93 L 141.5 95 L 93.5 95 L 91.5 96 L 91.5 95 Q 94.1 95.7 93 93 L 85.5 92 L 84 90.5 Q 84.7 87.9 82 89 L 82 86.5 L 84 82 L 87.5 81 Z M 92 85 L 93 87 L 96 86 L 98 87 L 101 86 L 104 87 L 109 86 L 111 87 Q 117 88 120 86 L 92 85 Z " /><path fill="rgb(139,92,22)" stroke="rgb(139,92,22)" stroke-width="1" opacity="1" d="M 16.5 90 L 21 92.5 L 24.5 97 L 34.5 104 L 71.5 115 Q 80.8 113.7 85.5 117 L 119.5 117 L 123.5 115 L 131.5 115 L 140.5 112 L 146.5 112 L 154.5 109 L 162 104 L 166 97 Q 169.8 96.3 171 99.5 L 179 112.5 L 179 115.5 L 184 124.5 L 184 128 Q 181 129.3 182 125.5 L 175 107.5 L 167.5 99 L 160.5 107 L 149.5 113 L 137.5 116 Q 129.8 114.8 126.5 118 L 94.5 119 L 93.5 118 L 77.5 118 L 72.5 116 L 62.5 115 L 32 105 Q 33.1 102.3 30.5 103 L 16.5 92 L 11 104.5 L 11 108.5 L 8 115.5 L 8 120.5 L 6 126.5 L 6 155.5 L 8 161.5 L 8 166.5 L 11.5 171 Q 19.1 177.6 31 179 L 32 184 Q 29 185.3 30 181.5 L 26.5 179 L 22.5 179 L 14.5 175 L 8 169.5 L 6 164.5 L 5 152.5 L 4 151.5 L 4 130.5 L 10 102.5 L 13 94.5 L 16.5 90 Z " /><path fill="rgb(139,92,22)" stroke="rgb(139,92,22)" stroke-width="1" opacity="1" d="M 147.5 94 L 151 94.5 L 144.5 97 L 140.5 97 L 140.5 96 Q 145.8 96.8 147.5 94 Z " /><path fill="rgb(139,92,22)" stroke="rgb(139,92,22)" stroke-width="1" opacity="1" d="M 54.5 127 L 65.5 129 L 78 136.5 L 79 139.5 L 72.5 144 L 64.5 146 L 52 155.5 L 44.5 164 Q 40.8 167.3 32.5 166 L 23 158.5 L 23 149.5 L 28 140 Q 30.7 141.1 30 138.5 L 42.5 130 L 54.5 127 Z M 50 130 L 40 133 L 31 140 Q 32 142 29 141 L 26 146 L 24 153 L 25 159 Q 28 164 36 165 L 43 163 L 48 159 L 51 155 Q 50 152 53 153 L 53 151 L 67 143 L 75 141 Q 77 140 76 136 L 74 136 L 70 133 Q 66 134 67 131 L 62 130 L 50 130 Z " /><path fill="rgb(139,92,22)" stroke="rgb(139,92,22)" stroke-width="1" opacity="1" d="M 120.5 127 L 137.5 127 L 149 134 L 152 140 Q 155 138.8 154 142.5 L 155 144.5 Q 154.5 147.5 150.5 147 L 149.5 146 L 132.5 146 L 126.5 149 L 123.5 149 L 119 138.5 L 114 131.5 L 115 129 L 120.5 127 Z M 121 129 L 116 131 L 123 143 L 123 147 Q 127 148 130 145 L 153 145 L 150 140 Q 151 137 148 138 L 145 133 Q 141 134 142 131 Q 135 127 121 129 Z " /><path fill="rgb(139,92,22)" stroke="rgb(139,92,22)" stroke-width="1" opacity="1" d="M 30.5 143 L 31 144.5 L 28.5 149 L 28 146.5 L 30.5 143 Z " /><path fill="rgb(139,92,22)" stroke="rgb(139,92,22)" stroke-width="1" opacity="1" d="M 183.5 166 L 184 169.5 L 168 179.5 Q 169.7 185.3 166 184 Q 164.5 178.6 167.5 177 Q 176.4 174.4 182 168.5 L 183.5 166 Z " /><path fill="rgb(106,165,71)" stroke="rgb(106,165,71)" stroke-width="1" opacity="1" d="M 123 133 L 133.5 133 L 145 138 Q 146.5 141.8 143.5 141 L 142.5 140 L 131.5 140 L 126 142 L 123 133 Z " /><path fill="rgb(106,165,71)" stroke="rgb(106,165,71)" stroke-width="1" opacity="1" d="M 50.5 134 L 61.5 134 L 68 137.5 Q 68.8 139.8 66.5 139 Q 54.7 142.7 48 151.5 L 46 154.5 Q 44.5 157.5 43 154.5 L 46 149.5 Q 45.3 146.3 40.5 147 Q 35.8 151.1 37 160 Q 32.3 161 31 157.5 L 34 151 L 36 151 L 36 146 L 32 146 L 32 144.5 L 39.5 138 L 50.5 134 Z " /><path fill="rgb(253,236,116)" stroke="rgb(253,236,116)" stroke-width="1" opacity="1" d="M 79 32 L 91.5 32 L 92 33.5 L 90.5 33 L 80.5 33 L 79 34.5 L 78 45.5 L 78.5 47 Q 75.3 45.3 77 38.5 L 79 32 Z " /><path fill="rgb(253,236,116)" stroke="rgb(253,236,116)" stroke-width="1" opacity="1" d="M 129.5 32 L 139 32.5 L 129.5 33 L 128.5 34 L 129.5 32 Z " /><path fill="rgb(253,236,116)" stroke="rgb(253,236,116)" stroke-width="1" opacity="1" d="M 72.5 33 Q 75 34 74 38.5 Q 71.5 40 73 45.5 L 74 49.5 L 76.5 52 L 79.5 54 L 87.5 54 L 89 55.5 L 89 59.5 L 93 67.5 L 77.5 68 L 70 64 L 67 58.5 L 67 35.5 L 72.5 33 Z " /><path fill="rgb(253,236,116)" stroke="rgb(253,236,116)" stroke-width="1" opacity="1" d="M 98.5 33 L 101.5 34 L 104.5 33 L 122.5 33 L 124 34.5 L 125 41.5 L 128 47 Q 131.1 46.3 130.5 49 L 138.5 49 L 142 54.5 L 145 66 Q 130.3 64.9 123 55.5 L 120.5 51 L 117 52.5 Q 115.8 58.3 111.5 61 Q 109.3 59.3 110 54.5 L 103.5 46 L 98 43.5 L 97 34.5 L 98.5 33 Z " /><path fill="rgb(253,236,116)" stroke="rgb(253,236,116)" stroke-width="1" opacity="1" d="M 149 34 Q 158.2 32.9 163 36 L 164 39.5 Q 161.5 41 165 42.5 L 167 54.5 L 166 61 Q 162.7 62.3 164 57.5 L 159 43.5 L 155.5 40 Q 150 41 149 37.5 L 149 34 Z " /><path fill="rgb(253,236,116)" stroke="rgb(253,236,116)" stroke-width="1" opacity="1" d="M 152.5 45 L 156 46.5 L 155.5 49 L 155 46 Q 151.7 46.8 152.5 45 Z " /><path fill="rgb(253,236,116)" stroke="rgb(253,236,116)" stroke-width="1" opacity="1" d="M 98.5 49 Q 102.9 47.5 102 50.5 L 103.5 53 Q 103 49.5 98.5 50 L 98.5 49 Z " /><path fill="rgb(253,236,116)" stroke="rgb(253,236,116)" stroke-width="1" opacity="1" d="M 107.5 64 L 105.5 67 L 99.5 68 L 99.5 67 Q 105.5 67.5 107.5 64 Z " /><path fill="rgb(253,236,116)" stroke="rgb(253,236,116)" stroke-width="1" opacity="1" d="M 151.5 66 L 158 66.5 L 151.5 67 L 151.5 66 Z " /><path fill="rgb(253,236,116)" stroke="rgb(253,236,116)" stroke-width="1" opacity="1" d="M 16.5 98 L 20.5 103 L 23.5 105 L 30.5 110 L 43 114.5 Q 46.4 117.1 45 124.5 L 32 133.5 L 28 138.5 L 20 150.5 L 18 157.5 L 22 159 L 25 165 L 31.5 169 L 39.5 170 Q 49.1 167.6 54 160.5 L 56 157.5 L 62 153 Q 60.8 150 64.5 151 L 94.5 136 L 114 134 L 119 142.5 L 120 156.5 L 116.5 161 L 76.5 175 L 66.5 177 L 43.5 178 L 38.5 177 L 34.5 178 L 30.5 176 Q 17.6 174.4 11 166.5 L 10 156.5 L 8 151.5 L 8 131.5 L 11 119.5 L 11 114.5 L 13 111.5 L 16.5 98 Z " /><path fill="rgb(253,236,116)" stroke="rgb(253,236,116)" stroke-width="1" opacity="1" d="M 167.5 105 L 171 106.5 L 178 121.5 L 181 133.5 L 181 162.5 L 177.5 169 L 170.5 173 L 153.5 178 L 126.5 179 Q 124.8 176.3 118.5 178 L 113 176 Q 111.8 173 115.5 174 L 123 168.5 L 125 165.5 Q 131.4 160.5 130 149 L 135.5 148 L 149.5 148 Q 151 150.5 156.5 149 L 164.5 154 L 168.5 154 Q 171.3 152.8 169 151.5 L 169 148 Q 166.3 149.1 167 146.5 L 164 145 Q 165.1 142.3 162.5 143 L 156 137.5 L 151 130.5 L 150 126.5 Q 153.6 124.6 153 120 Q 147.4 119 146 123.5 L 144.5 126 L 132 121.5 Q 134.1 119.1 139.5 120 L 142.5 118 L 146.5 118 L 163 110 Q 161.9 107.3 164.5 108 L 167.5 105 Z " /><path fill="rgb(253,236,116)" stroke="rgb(253,236,116)" stroke-width="1" opacity="1" d="M 49.5 116 L 64 120 Q 65.8 124.5 60.5 123 L 55.5 122 L 52.5 124 L 50 121.5 L 49.5 116 Z " /><path fill="rgb(253,236,116)" stroke="rgb(253,236,116)" stroke-width="1" opacity="1" d="M 94.5 179 L 102 182 L 101.5 184 L 85 184 Q 83.7 180.3 89.5 182 L 94.5 179 Z " /></svg>